<?xml version="1.0" encoding="UTF-8" standalone="no"?>
<!-- Created with Inkscape (http://www.inkscape.org/) -->

<svg
   xmlns:dc="http://purl.org/dc/elements/1.1/"
   xmlns:cc="http://creativecommons.org/ns#"
   xmlns:rdf="http://www.w3.org/1999/02/22-rdf-syntax-ns#"
   xmlns:svg="http://www.w3.org/2000/svg"
   xmlns="http://www.w3.org/2000/svg"
   xmlns:sodipodi="http://sodipodi.sourceforge.net/DTD/sodipodi-0.dtd"
   xmlns:inkscape="http://www.inkscape.org/namespaces/inkscape"
   width="150mm"
   height="80mm"
   viewBox="0 0 150 80"
   version="1.1"
   id="svg4600"
   inkscape:version="0.92.4 (5da689c313, 2019-01-14)"
   sodipodi:docname="Segments.svg">
  <defs
     id="defs4594" />
  <sodipodi:namedview
     id="base"
     pagecolor="#ffffff"
     bordercolor="#666666"
     borderopacity="1.0"
     inkscape:pageopacity="0.0"
     inkscape:pageshadow="2"
     inkscape:zoom="2"
     inkscape:cx="238.68381"
     inkscape:cy="108.23043"
     inkscape:document-units="mm"
     inkscape:current-layer="layer1"
     showgrid="false"
     inkscape:window-width="1920"
     inkscape:window-height="1001"
     inkscape:window-x="-9"
     inkscape:window-y="-9"
     inkscape:window-maximized="1" />
  <metadata
     id="metadata4597">
    <rdf:RDF>
      <cc:Work
         rdf:about="">
        <dc:format>image/svg+xml</dc:format>
        <dc:type
           rdf:resource="http://purl.org/dc/dcmitype/StillImage" />
        <dc:title></dc:title>
      </cc:Work>
    </rdf:RDF>
  </metadata>
  <g
     inkscape:label="Vrstva 1"
     inkscape:groupmode="layer"
     id="layer1"
     transform="translate(0,-217)">
    <ellipse
       style="fill:#ffffff;stroke:#000000;stroke-width:0.26458332;stroke-opacity:1"
       id="path4602"
       cx="22.317005"
       cy="284.23788"
       rx="12.160764"
       ry="11.024868" />
    <ellipse
       style="fill:#ffffff;stroke:#000000;stroke-width:0.26458332;stroke-opacity:1"
       id="path5147"
       cx="65.61467"
       cy="273.14618"
       rx="14.165285"
       ry="12.22758" />
    <ellipse
       style="fill:#ffffff;stroke:#000000;stroke-width:0.26458332;stroke-opacity:1"
       id="path5149"
       cx="37.60482"
       cy="252.33926"
       rx="12.294398"
       ry="12.22758" />
    <ellipse
       style="fill:#ffffff;stroke:#000000;stroke-width:0.26458332;stroke-opacity:1"
       id="path5151"
       cx="15.127455"
       cy="264.78067"
       rx="10.824416"
       ry="10.891232" />
    <ellipse
       style="fill:#ffffff;stroke:#000000;stroke-width:0.26458332;stroke-opacity:1"
       id="path5153"
       cx="43.364479"
       cy="274.48254"
       rx="7.9512682"
       ry="7.550364" />
    <ellipse
       style="fill:#ffffff;stroke:#000000;stroke-width:0.26458332;stroke-opacity:1"
       id="path5155"
       cx="82.853546"
       cy="248.82466"
       rx="12.828938"
       ry="12.49485" />
    <path
       style="fill:#000000;stroke:#000000;stroke-width:0.26458332;stroke-opacity:1"
       id="path5157"
       d="m 26.615432,255.95004 c -0.856871,0.69103 -1.831441,1.18994 -2.783051,1.74134 -0.303433,0.10387 -0.547891,0.3096 -0.853004,0.4068 -0.631386,0.28687 -1.480096,0.93767 1.446593,-0.84848 0.01823,-0.0111 -0.1357,-0.0893 -0.0037,-0.13022 0.301046,0.007 0.603519,0.0341 0.902209,-0.0103 0.306416,-0.0311 0.589662,-0.1296 0.871168,-0.24644 0.641774,-0.22022 1.541254,-0.82546 -1.343929,0.80481 -0.218197,0.12329 0.211601,-0.13664 0.275539,-0.19151 0.118661,-0.13557 0.194584,-0.31947 0.0257,-0.44015 -0.240668,-0.1135 -0.453403,-0.0448 -0.681474,0.0601 -0.628834,0.43807 -0.110302,0.0713 1.429129,-0.80633 0.04481,-0.0256 -0.08822,0.0536 -0.130783,0.0827 -0.116165,0.0796 -0.219113,0.17572 -0.32585,0.26704 -0.144234,0.11634 -0.267106,0.25502 -0.401929,0.3814 0,0 -1.840762,0.73829 -1.840762,0.73829 v 0 c 0.157846,-0.10555 0.269957,-0.24499 0.406717,-0.37468 0.107841,-0.0944 0.211287,-0.1967 0.319773,-0.28934 0.614337,-0.5246 1.361834,-0.89326 2.102338,-1.21587 0.288434,-0.0783 0.564954,-0.0784 0.813114,0.11062 0.199173,0.20855 0.246129,0.44782 0.112977,0.71129 -0.07246,0.11284 -0.136808,0.18375 -0.254412,0.25152 -0.799012,0.46044 -1.307829,0.86345 -2.064235,1.13396 -0.289797,0.1081 -0.592896,0.17274 -0.901238,0.1991 -0.315194,0.0128 -0.634774,0.0164 -0.947626,-0.0278 -0.03495,-0.016 -0.07602,-0.0226 -0.104845,-0.0481 -0.08024,-0.0708 -0.130241,-0.20471 -0.109059,-0.21849 0.731802,-0.47642 1.249523,-0.84124 1.964736,-1.11796 0.279043,-0.13105 0.541491,-0.29617 0.82432,-0.42035 -2.964641,1.72654 -1.216024,0.74818 -0.588066,0.23948 0,0 1.839666,-0.74255 1.839666,-0.74255 z"
       inkscape:connector-curvature="0" />
    <path
       style="fill:#000000;stroke:#000000;stroke-width:0.26458332;stroke-opacity:1"
       id="path5159"
       d="m 18.826563,272.27305 c 0.268439,0.42693 0.422878,0.90987 0.561287,1.39112 0.15865,0.50954 0.2384,1.03857 0.296331,1.56769 0.197536,1.26775 0.133243,0.70278 -1.71665,1.70923 -0.225236,-0.27702 -0.2905,-0.63251 -0.343168,-0.97613 -0.04667,-0.34882 -0.05876,-0.7008 -0.06479,-1.05224 -0.0031,-0.27607 -0.0017,-0.55216 -0.0011,-0.82823 3.7e-4,-0.17769 2.04e-4,-0.0889 5.29e-4,-0.26649 0,0 1.764295,-0.89858 1.764295,-0.89858 v 0 c -2.91e-4,0.17775 -1.14e-4,0.0888 -5.29e-4,0.26673 -8.2e-4,0.2758 -0.0025,0.55158 -0.0029,0.82738 0.0011,0.34443 0.0043,0.68966 0.04462,1.03219 0.0075,0.0523 0.136067,0.7838 0.219858,0.72665 -0.558587,0.32351 -1.12423,0.63511 -1.675761,0.9705 -0.02014,0.0122 0.05159,0.0198 0.07048,0.006 0.02293,-0.0172 0.02656,-0.0521 0.02978,-0.0805 0.02015,-0.17799 -0.05923,-0.35232 -0.06554,-0.52832 -0.04182,-0.52067 -0.110804,-1.04092 -0.273308,-1.53958 -0.129097,-0.46115 -0.265558,-0.9347 -0.554566,-1.32446 0,0 1.711129,-1.00266 1.711129,-1.00266 z"
       inkscape:connector-curvature="0" />
    <path
       style="fill:#000000;stroke:#000000;stroke-width:0.26458332;stroke-opacity:1"
       id="path5161"
       d="m 32.702603,278.05517 c 0.524928,-0.16018 1.024173,-0.39367 1.523121,-0.62039 0.09824,-0.0528 0.196364,-0.10589 0.294725,-0.15851 0.172945,-0.0925 0.347993,-0.18111 0.519665,-0.27596 0.07709,-0.0426 0.305306,-0.17574 0.228865,-0.13201 -1.500008,0.85829 -1.953188,1.13642 -1.283502,0.72872 0.259022,-0.15901 0.505659,-0.33832 0.751737,-0.51668 0.650383,-0.48585 1.234575,-0.78216 2.037784,-1.23198 0.01326,-0.007 0.03599,-2.4e-4 0.04376,0.013 0.04031,0.0677 0.06214,0.14488 0.09321,0.21735 -0.01667,0.0373 -0.02641,0.0784 -0.04996,0.11179 -0.05242,0.0742 -0.206695,0.19674 -0.267033,0.24773 -0.186097,0.15727 -0.37574,0.30919 -0.567373,0.45966 -0.387881,0.29191 -0.775493,0.58348 -1.153186,0.8885 -0.816409,0.62322 -1.715169,1.09614 -2.605651,1.61382 -0.2476,0.12197 -0.496983,0.2536 -0.76005,0.33973 -0.281906,0.087 -0.529767,0.0265 -0.727909,-0.1914 -0.02487,-0.16949 -0.06476,-0.20625 0.04409,-0.35436 0.152252,-0.20714 0.447442,-0.37864 0.662355,-0.50387 0.654124,-0.38124 1.313283,-0.75375 1.969926,-1.13059 0.561256,-0.32867 1.142815,-0.61561 1.74275,-0.86617 0.312293,-0.16761 0.624549,-0.32872 0.954958,-0.46029 0.264096,-0.0861 0.522163,-0.18206 0.777713,-0.28898 0.182859,-0.1116 0.462278,0.0409 0.340178,0.27426 -0.02697,0.0516 -0.08227,0.0823 -0.12341,0.12343 -0.415951,0.36338 -0.858057,0.69049 -1.32326,0.98745 -0.769242,0.48504 -1.570916,0.91967 -2.359875,1.36938 -0.495747,0.2826 0.988079,-0.57115 1.485329,-0.85108 0.02445,-0.0138 -0.119989,0.0785 -0.341204,0.22008 -0.881198,0.47863 -1.73386,1.02423 -2.638467,1.46193 -0.179687,0.0671 -0.08917,0.0381 -0.271413,0.0874 0,0 1.563436,-1.21373 1.563436,-1.21373 v 0 c 0.168085,-0.0661 0.08438,-0.0297 0.250929,-0.10953 0.677955,-0.36172 2.190845,-1.10789 -0.740114,0.48209 0.236067,-0.13234 0.1206,-0.0591 0.345802,-0.22074 0.620356,-0.367 1.24637,-0.72432 1.870459,-1.08492 0.485484,-0.28051 -0.970444,0.56192 -1.454637,0.84465 -0.15808,0.0923 0.669523,-0.37613 0.472038,-0.28067 0.462516,-0.28172 0.90805,-0.58703 1.310667,-0.95112 0.04092,-0.0288 0.07501,-0.0715 0.122764,-0.0865 0.01765,-0.006 0.279254,0.0391 0.04179,0.1315 -0.03606,0.014 -0.0718,0.0289 -0.107709,0.0433 -0.253865,0.10408 -0.519668,0.17774 -0.772078,0.28633 -0.318312,0.14253 -0.623525,0.30874 -0.941853,0.45069 -0.58868,0.25599 -1.160005,0.54443 -1.714191,0.86908 2.677454,-1.56102 1.128956,-0.67284 0.525997,-0.26496 0.174117,0.15082 0.401402,0.0799 0.595125,0.004 0.249108,-0.11088 0.50179,-0.21576 0.735031,-0.35845 -2.997973,1.74799 -1.398754,0.83751 -0.750546,0.35774 0.38526,-0.29739 0.756716,-0.61151 1.15602,-0.89054 0.297444,-0.23212 0.580861,-0.49096 0.897088,-0.69373 0.03932,0.0457 0.08339,0.0877 0.11797,0.13708 0.0045,0.006 -0.01278,0.0267 -0.006,0.0228 2.702055,-1.55712 1.944373,-1.2441 1.365245,-0.73385 -0.265097,0.16354 -0.504293,0.36306 -0.765426,0.53285 -1.026472,0.60237 -2.040382,1.23039 -3.112373,1.75 -0.515983,0.22979 -1.030497,0.46755 -1.574586,0.62466 0,0 1.571268,-1.20978 1.571268,-1.20978 z"
       inkscape:connector-curvature="0" />
    <path
       style="fill:#000000;stroke:#000000;stroke-width:0.26458332;stroke-opacity:1"
       id="path5163"
       d="m 50.760158,273.16451 c 0.371605,0.008 0.743342,0.005 1.115,0.003 0.295494,0 0.590991,-0.003 0.886489,-0.003 0.04502,-2e-5 0.09004,2.7e-4 0.135054,-8e-5 0.03483,-2.6e-4 0.06966,0 0.104483,-0.003 0.02548,0 0.09719,-0.0193 0.0763,-0.005 -1.706425,1.19137 -1.006761,1.18036 -1.786853,1.1724 -0.248412,-0.003 -0.496829,-0.003 -0.745247,-0.003 -0.04246,0.008 -0.08491,0.0169 -0.127368,0.0254 0,0 1.587606,-1.18242 1.587606,-1.18242 v 0 c 0.04717,-0.003 0.09434,-0.005 0.141502,-0.007 0.250317,-1.4e-4 0.500639,-2.2e-4 0.750951,-0.003 0.740759,-0.007 0.134871,-0.0206 -1.440463,1.1724 -0.01675,0.0127 -0.04187,-0.004 -0.06289,-0.005 -0.03318,0 -0.06638,-0.003 -0.09957,-0.003 -0.04494,0 -0.08988,-6e-5 -0.134822,-8e-5 -0.293647,0 -0.587293,0 -0.880938,-0.003 -0.374732,0 -0.74954,-0.004 -1.124225,0.003 0,0 1.604994,-1.1661 1.604994,-1.1661 z"
       inkscape:connector-curvature="0" />
    <path
       style="fill:#000000;stroke:#000000;stroke-width:0.26458332;stroke-opacity:1"
       id="path5165"
       d="m 72.769083,264.3057 c 0.167434,-0.53037 0.43951,-1.01721 0.743509,-1.47976 0.287972,-0.43661 0.609478,-0.84886 0.921808,-1.26777 0.239906,-0.3722 0.469381,-0.75231 0.6921,-1.13524 0.198601,-0.31698 0.411514,-0.62331 0.607854,-0.94208 0.18855,-0.27669 0.349892,-0.56733 0.493156,-0.86946 0.591492,-1.13612 -0.02601,-0.47946 2.115476,-1.41505 0.09616,0.46426 -0.07284,0.93047 -0.23174,1.36194 -0.129556,0.40016 -0.322115,0.7607 -0.554461,1.1086 -0.233093,0.31486 -0.436118,0.64647 -0.614823,0.99456 -0.190735,0.30631 -0.305239,0.64943 -0.477186,0.965 -0.134949,0.22617 -0.27595,0.44826 -0.417386,0.67039 -0.160237,0.24437 -0.305734,0.49244 -0.420023,0.76165 -0.115671,0.31243 -0.259784,0.6112 -0.404469,0.91065 -0.02061,0.0417 -0.0412,0.0834 -0.0618,0.12506 0,0 -1.807297,0.80746 -1.807297,0.80746 v 0 c 0.02365,-0.0373 0.0473,-0.0746 0.07095,-0.11189 0.132668,-0.30303 0.305496,-0.58586 0.411184,-0.90143 0.101627,-0.27979 0.223076,-0.54573 0.400759,-0.78616 0.12578,-0.23577 0.292383,-0.4456 0.422526,-0.67882 0.209667,-0.29589 0.286232,-0.65115 0.487392,-0.95262 0.182869,-0.35081 0.359783,-0.70272 0.603777,-1.01709 0.240538,-0.3363 0.459298,-0.67576 0.587036,-1.07348 0.157596,-0.37825 0.316942,-0.79424 0.272,-1.21092 0.582755,-0.32015 1.165764,-0.63983 1.748266,-0.96043 0.01749,-0.01 -0.04085,0.0118 -0.05319,0.0275 -0.08837,0.11229 -0.127556,0.28586 -0.195813,0.41159 -0.02709,0.0499 -0.05664,0.0985 -0.08496,0.14768 -0.149408,0.30524 -0.282774,0.61735 -0.485005,0.89365 -0.211786,0.30672 -0.381479,0.64179 -0.617736,0.93282 -0.216252,0.3934 -0.466987,0.76722 -0.687891,1.15805 -0.304053,0.42721 -0.64553,0.82644 -0.933383,1.26579 -0.305218,0.43473 -0.587905,0.89584 -0.739349,1.40907 0,0 -1.791283,0.85077 -1.791283,0.85077 z"
       inkscape:connector-curvature="0" />
    <path
       style="fill:#000000;stroke:#000000;stroke-width:0.26458332;stroke-opacity:1"
       id="path5167"
       d="m 46.372398,259.34791 c 0.39996,0.17582 0.77157,0.40129 1.154123,0.60966 0.351412,0.17717 0.718627,0.31702 1.077421,0.47898 0.29782,0.18557 0.574077,0.40826 0.841105,0.63625 0.261752,0.23871 0.522026,0.47806 0.791038,0.7085 0.259927,0.23199 0.560377,0.41075 0.848693,0.6044 0.270743,0.21836 0.532421,0.44993 0.819944,0.64613 0.270473,0.20421 0.511217,0.44189 0.775063,0.65422 0.214344,0.21178 0.430596,0.42293 0.674692,0.60064 0.22601,0.1828 0.43338,0.37498 0.677178,0.53479 0.264736,0.16862 0.482785,0.39362 0.712671,0.60434 0.234275,0.18401 0.446476,0.39256 0.671785,0.58692 0.156768,0.12195 0.286297,0.27207 0.405201,0.42982 0,0 -1.700628,1.01094 -1.700628,1.01094 v 0 c -0.113075,-0.14671 -0.239024,-0.28217 -0.385019,-0.39724 -0.220855,-0.20146 -0.444,-0.39778 -0.672634,-0.59031 -0.222541,-0.2049 -0.435137,-0.42138 -0.697548,-0.57714 -0.244065,-0.16386 -0.447074,-0.37097 -0.68208,-0.54628 -0.238934,-0.18757 -0.459724,-0.39468 -0.676296,-0.60733 -0.258445,-0.21097 -0.494842,-0.44732 -0.763815,-0.64543 -0.281395,-0.20369 -0.54859,-0.42611 -0.822666,-0.63943 -0.293852,-0.19769 -0.591331,-0.39323 -0.859375,-0.62543 -0.267187,-0.2311 -0.522602,-0.47508 -0.788185,-0.70802 -0.256937,-0.21437 -0.52001,-0.42863 -0.813613,-0.59075 -0.358717,-0.16849 -0.73252,-0.3029 -1.079394,-0.49609 -0.375769,-0.21527 -0.750356,-0.4287 -1.157028,-0.58298 0,0 1.649367,-1.09916 1.649367,-1.09916 z"
       inkscape:connector-curvature="0" />
    <path
       sodipodi:type="spiral"
       style="fill:none;fill-rule:evenodd;stroke:#000000;stroke-width:0.26458332"
       id="path5169"
       sodipodi:cx="13.096208"
       sodipodi:cy="235.12711"
       sodipodi:expansion="1"
       sodipodi:revolution="3"
       sodipodi:radius="12.320517"
       sodipodi:argument="-17.343885"
       sodipodi:t0="0"
       d="m 13.096208,235.12711 c 0.0402,0.61642 -0.81109,0.35831 -1.024534,0.0668 -0.578418,-0.78993 0.113592,-1.81144 0.890897,-2.11588 1.390418,-0.54457 2.831623,0.51342 3.207236,1.84861 0.551227,1.95945 -0.91418,3.86959 -2.806327,4.29859 -2.521935,0.57179 -4.9143832,-1.31468 -5.3899382,-3.76404 -0.5984374,-3.08228 1.7149025,-5.96257 4.7217572,-6.48129 3.641704,-0.62825 7.01267,2.11495 7.572641,5.67947 0.659906,4.20067 -2.51488,8.06399 -6.637188,8.66399 -4.7593669,0.69273 -9.116108,-2.91473 -9.7553428,-7.5949 -0.7263392,-5.31791 3.3145321,-10.1688 8.5526178,-10.8467 5.87634,-0.7605 11.221893,3.7143 11.938045,9.51034 0.795065,6.4347 -4.114027,12.2753 -10.468048,13.02939" />
    <path
       style="fill:#000000;stroke:#000000;stroke-width:0.26458332;stroke-opacity:1"
       id="path5171"
       d="m 24.457007,240.04928 c 0.39981,0.11799 0.817884,0.14663 1.222808,0.23718 0.332513,0.0629 0.638581,0.22007 0.920694,0.40227 0.305753,0.17887 0.584306,0.39615 0.894927,0.56732 0.335775,0.16239 0.645359,0.3656 0.960962,0.56233 0.236855,0.16422 0.452707,0.35146 0.68867,0.51609 0.201118,0.21024 0.447032,0.35637 0.683652,0.52066 0.254434,0.14208 0.47762,0.33649 0.637466,0.58035 0.01254,0.0286 0.02508,0.0572 0.03764,0.0858 0,0 -1.745478,0.96176 -1.745478,0.96176 v 0 c -0.0024,-0.0158 -0.0047,-0.0316 -0.007,-0.0474 -0.13925,-0.22712 -0.36907,-0.37583 -0.59114,-0.51437 -0.240318,-0.16032 -0.472924,-0.32567 -0.685112,-0.52275 -0.232529,-0.16318 -0.445211,-0.3514 -0.680733,-0.51095 -0.30871,-0.20072 -0.625155,-0.38468 -0.950838,-0.5568 -0.30858,-0.17963 -0.598439,-0.38709 -0.905061,-0.56981 -0.273524,-0.1615 -0.562497,-0.29514 -0.878578,-0.3471 -0.406469,-0.0765 -0.814471,-0.14673 -1.221645,-0.21886 0,0 1.618818,-1.14566 1.618818,-1.14566 z"
       inkscape:connector-curvature="0" />
    <text
       xml:space="preserve"
       style="font-style:normal;font-weight:normal;font-size:4.23333311px;line-height:1.25;font-family:sans-serif;letter-spacing:0px;word-spacing:0px;fill:#000000;fill-opacity:1;stroke:none;stroke-width:0.26458332"
       x="24.829487"
       y="252.99556"
       id="text5177"><tspan
         sodipodi:role="line"
         id="tspan5175"
         x="24.829487"
         y="252.99556"
         style="stroke-width:0.26458332">10.0.0.0/24</tspan></text>
    <text
       xml:space="preserve"
       style="font-style:normal;font-weight:normal;font-size:4.23333311px;line-height:1.25;font-family:sans-serif;letter-spacing:0px;word-spacing:0px;fill:#000000;fill-opacity:1;stroke:none;stroke-width:0.26458332"
       x="1.9644308"
       y="265.94327"
       id="text5181"><tspan
         sodipodi:role="line"
         id="tspan5179"
         x="1.9644308"
         y="265.94327"
         style="stroke-width:0.26458332">10.0.1.0/24</tspan></text>
    <text
       xml:space="preserve"
       style="font-style:normal;font-weight:normal;font-size:4.23333311px;line-height:1.25;font-family:sans-serif;letter-spacing:0px;word-spacing:0px;fill:#000000;fill-opacity:1;stroke:none;stroke-width:0.26458332"
       x="10.102788"
       y="285.21344"
       id="text5185"><tspan
         sodipodi:role="line"
         id="tspan5183"
         x="10.102788"
         y="285.21344"
         style="stroke-width:0.26458332">10.0.2.0/24</tspan></text>
    <text
       xml:space="preserve"
       style="font-style:normal;font-weight:normal;font-size:4.23333311px;line-height:1.25;font-family:sans-serif;letter-spacing:0px;word-spacing:0px;fill:#000000;fill-opacity:1;stroke:none;stroke-width:0.26458332"
       x="26.940765"
       y="270.3399"
       id="text5189"><tspan
         sodipodi:role="line"
         id="tspan5187"
         x="26.940765"
         y="270.3399"
         style="stroke-width:0.26458332">10.0.3.0/24</tspan></text>
    <text
       xml:space="preserve"
       style="font-style:normal;font-weight:normal;font-size:4.23333311px;line-height:1.25;font-family:sans-serif;letter-spacing:0px;word-spacing:0px;fill:#000000;fill-opacity:1;stroke:none;stroke-width:0.26458332"
       x="53.600903"
       y="274.36227"
       id="text5193"><tspan
         sodipodi:role="line"
         id="tspan5191"
         x="53.600903"
         y="274.36227"
         style="stroke-width:0.26458332">10.0.4.0/24</tspan></text>
    <text
       xml:space="preserve"
       style="font-style:normal;font-weight:normal;font-size:4.23333311px;line-height:1.25;font-family:sans-serif;letter-spacing:0px;word-spacing:0px;fill:#000000;fill-opacity:1;stroke:none;stroke-width:0.26458332"
       x="70.064705"
       y="249.85365"
       id="text5197"><tspan
         sodipodi:role="line"
         id="tspan5195"
         x="70.064705"
         y="249.85365"
         style="stroke-width:0.26458332">10.0.5.0/24</tspan></text>
    <text
       xml:space="preserve"
       style="font-style:normal;font-weight:normal;font-size:4.23333311px;line-height:1.25;font-family:sans-serif;letter-spacing:0px;word-spacing:0px;fill:#000000;fill-opacity:1;stroke:none;stroke-width:0.26458332"
       x="6.3610139"
       y="246.95378"
       id="text5201"><tspan
         sodipodi:role="line"
         id="tspan5199"
         x="6.3610139"
         y="246.95378"
         style="stroke-width:0.26458332">0/0</tspan></text>
    <path
       style="fill:none;stroke:#000000;stroke-width:0.26458332px;stroke-linecap:butt;stroke-linejoin:miter;stroke-opacity:1"
       d="M 2.9104166,223.975 1.7197916,294.35417 25.4,296.20625 102.65833,281.25729 95.514582,232.17708 31.353125,236.675 16.933333,219.87395 Z"
       id="path5203"
       inkscape:connector-curvature="0" />
    <text
       xml:space="preserve"
       style="font-style:normal;font-weight:normal;font-size:6.3499999px;line-height:1.25;font-family:sans-serif;letter-spacing:0px;word-spacing:0px;fill:#000000;fill-opacity:1;stroke:none;stroke-width:0.26458332"
       x="31.220833"
       y="234.55832"
       id="text5207"><tspan
         sodipodi:role="line"
         id="tspan5205"
         x="31.220833"
         y="234.55832"
         style="font-size:6.3499999px;stroke-width:0.26458332">Subnet</tspan></text>
  </g>
</svg>
